HIERARCHY
ROOT hip
{
	OFFSET 0.000000 0.000000 0.000000
	CHANNELS 6 Xposition Yposition Zposition Xrotation Zrotation Yrotation 
	JOINT abdomen
	{
		OFFSET 0.000000 3.422050 0.000000
		CHANNELS 3 Xrotation Zrotation Yrotation 
		JOINT chest
		{
			OFFSET 0.000000 8.486693 -0.684411
			CHANNELS 3 Xrotation Zrotation Yrotation 
			JOINT neck
			{
				OFFSET 0.000000 10.266162 -0.273764
				CHANNELS 3 Xrotation Zrotation Yrotation 
				JOINT head
				{
					OFFSET 0.000000 3.148285 0.000000
					CHANNELS 3 Xrotation Zrotation Yrotation 
					End Site
					{
						OFFSET 0.000000 3.148289 0.000000
					}
				}
			}
			JOINT lCollar
			{
				OFFSET 3.422053 6.707223 -0.821293
				CHANNELS 3 Yrotation Zrotation Xrotation 
				JOINT lShldr
				{
					OFFSET 3.285171 0.000000 0.000000
					CHANNELS 3 Zrotation Yrotation Xrotation 
					JOINT lForeArm
					{
						OFFSET 10.129278 0.000000 0.000000
						CHANNELS 3 Yrotation Zrotation Xrotation 
						JOINT lHand
						{
							OFFSET 8.486692 0.000000 0.000000
							CHANNELS 3 Zrotation Yrotation Xrotation 
							End Site
							{
								OFFSET 4.106464 0.000000 0.000000
							}
						}
					}
				}
			}
			JOINT rCollar
			{
				OFFSET -3.558935 6.707223 -0.821293
				CHANNELS 3 Yrotation Zrotation Xrotation 
				JOINT rShldr
				{
					OFFSET -3.148289 0.000000 0.000000
					CHANNELS 3 Zrotation Yrotation Xrotation 
					JOINT rForeArm
					{
						OFFSET -10.266159 0.000000 0.000000
						CHANNELS 3 Yrotation Zrotation Xrotation 
						JOINT rHand
						{
							OFFSET -8.349810 0.000000 0.000000
							CHANNELS 3 Zrotation Yrotation Xrotation 
							End Site
							{
								OFFSET -4.106464 0.000000 0.000000
							}
						}
					}
				}
			}
		}
	}
	JOINT lThigh
	{
		OFFSET 5.338403 -1.642589 1.368821
		CHANNELS 3 Xrotation Zrotation Yrotation 
		JOINT lShin
		{
			OFFSET -2.053232 -20.121670 0.000000
			CHANNELS 3 Xrotation Zrotation Yrotation 
			JOINT lFoot
			{
				OFFSET 0.000000 -19.300380 -1.231939
				CHANNELS 3 Xrotation Yrotation Zrotation 
				End Site
				{
					OFFSET 0.000000 -2.463878 4.653993
				}
			}
		}
	}
	JOINT rThigh
	{
		OFFSET -5.338403 -1.642589 1.368821
		CHANNELS 3 Xrotation Zrotation Yrotation 
		JOINT rShin
		{
			OFFSET 2.053232 -20.121670 0.000000
			CHANNELS 3 Xrotation Zrotation Yrotation 
			JOINT rFoot
			{
				OFFSET 0.000000 -19.300380 -1.231939
				CHANNELS 3 Xrotation Yrotation Zrotation 
				End Site
				{
					OFFSET 0.000000 -2.463878 4.653993
				}
			}
		}
	}
}
MOTION
Frames: 18
Frame Time: 0.033264
0.000000 11.998247 -8.004953 3.999748 0.000000 0.000000 70.906570 0.000001 -0.000001 15.996989 0.000000 0.000000 -27.000286 0.000000 0.000000 -22.314688 -0.488749 20.593565 5.996593 -0.003181 -10.001706 92.030502 -64.152519 -167.046341 -15.750879 0.102800 -10.511053 0.000000 0.000000 14.998176 -6.000379 0.000014 -10.001887 -91.990631 64.165482 -167.000687 16.999372 -0.001742 20.000179 -4.139755 2.118589 0.335881 -61.999828 19.999102 -29.999998 139.991013 0.000000 0.000000 66.999611 0.000001 -0.000001 -62.001255 -20.003736 29.999212 139.991013 0.000000 0.000000 66.999611 0.000001 -0.000001 
0.000000 11.998247 -8.004953 3.999748 0.000000 0.000000 71.139114 0.000001 -0.000001 15.996989 0.000000 0.000000 -27.000286 0.000000 0.000000 -22.616549 -0.446902 21.197668 5.996593 -0.003181 -10.001706 92.030434 -63.686966 -167.046631 -15.890405 0.093907 -10.232052 0.000000 0.000000 14.998176 -6.000379 0.000014 -10.001887 -91.990578 63.700249 -167.000916 16.999372 -0.001742 20.000179 -4.241947 2.211158 1.193926 -61.999828 19.999102 -29.999998 139.991013 0.000000 0.000000 66.999611 0.000001 -0.000001 -62.001255 -20.003736 29.999212 139.991013 0.000000 0.000000 66.999611 0.000001 -0.000001 
0.000000 11.998247 -8.004953 3.999748 0.000000 0.000000 71.371643 0.000001 -0.000001 15.996989 0.000000 0.000000 -27.000286 0.000000 0.000000 -22.917667 -0.401919 21.800976 5.996593 -0.003181 -10.001706 92.030380 -63.221645 -167.046936 -16.029854 0.084336 -9.953126 0.000000 0.000000 14.998176 -6.000379 0.000014 -10.001887 -91.990547 63.235226 -167.001175 16.999372 -0.001742 20.000179 -4.342587 2.305095 2.050508 -61.999828 19.999102 -29.999998 139.991013 0.000000 0.000000 66.999611 0.000001 -0.000001 -62.001255 -20.003736 29.999212 139.991013 0.000000 0.000000 66.999611 0.000001 -0.000001 
0.000000 11.998247 -8.004953 3.999748 0.000000 0.000000 71.604141 0.000001 -0.000001 15.996989 0.000000 0.000000 -27.000286 0.000000 0.000000 -23.217985 -0.353818 22.403421 5.996593 -0.003181 -10.001706 92.030357 -62.756565 -167.047256 -16.169228 0.074088 -9.674286 0.000000 0.000000 14.998176 -6.000379 0.000014 -10.001887 -91.990509 62.770435 -167.001404 16.999372 -0.001742 20.000179 -4.441652 2.400362 2.905529 -61.999828 19.999102 -29.999998 139.991013 0.000000 0.000000 66.999611 0.000001 -0.000001 -62.001255 -20.003736 29.999212 139.991013 0.000000 0.000000 66.999611 0.000001 -0.000001 
0.000000 11.998247 -8.004953 3.999748 0.000000 0.000000 71.836609 0.000001 -0.000001 15.996989 0.000000 0.000000 -27.000286 0.000000 0.000000 -23.517464 -0.302621 23.004961 5.996593 -0.003181 -10.001706 92.030281 -62.291676 -167.047531 -16.308516 0.063165 -9.395534 0.000000 0.000000 14.998176 -6.000379 0.000014 -10.001887 -91.990486 62.305889 -167.001648 16.999372 -0.001742 20.000179 -4.539114 2.496920 3.758902 -61.999828 19.999102 -29.999998 139.991013 0.000000 0.000000 66.999611 0.000001 -0.000001 -62.001255 -20.003736 29.999212 139.991013 0.000000 0.000000 66.999611 0.000001 -0.000001 
0.000000 11.998247 -8.004953 3.999748 0.000000 0.000000 72.069046 0.000001 -0.000001 15.996989 0.000000 0.000000 -27.000286 0.000000 0.000000 -23.816044 -0.248346 23.605530 5.996593 -0.003181 -10.001706 92.030205 -61.827072 -167.047821 -16.447716 0.051568 -9.116876 0.000000 0.000000 14.998176 -6.000379 0.000014 -10.001887 -91.990425 61.841572 -167.001877 16.999372 -0.001742 20.000179 -4.634949 2.594726 4.610532 -61.999828 19.999102 -29.999998 139.991013 0.000000 0.000000 66.999611 0.000001 -0.000001 -62.001255 -20.003736 29.999212 139.991013 0.000000 0.000000 66.999611 0.000001 -0.000001 
0.000000 11.998247 -8.004953 3.999748 0.000000 0.000000 72.301460 0.000001 -0.000001 15.996989 0.000000 0.000000 -27.000286 0.000000 0.000000 -24.113672 -0.191018 24.205080 5.996593 -0.003181 -10.001706 92.030144 -61.362736 -167.048126 -16.586824 0.039297 -8.838323 0.000000 0.000000 14.998176 -6.000379 0.000014 -10.001887 -91.990372 61.377522 -167.002121 16.999372 -0.001742 20.000179 -4.729138 2.693743 5.460338 -61.999828 19.999102 -29.999998 139.991013 0.000000 0.000000 66.999611 0.000001 -0.000001 -62.001255 -20.003736 29.999212 139.991013 0.000000 0.000000 66.999611 0.000001 -0.000001 
0.000000 11.998247 -8.004953 3.999748 0.000000 0.000000 72.533829 0.000001 -0.000001 15.996989 0.000000 0.000000 -27.000286 0.000000 0.000000 -24.410303 -0.130659 24.803551 5.996593 -0.003181 -10.001706 92.030067 -60.898670 -167.048416 -16.725830 0.026353 -8.559875 0.000000 0.000000 14.998176 -6.000379 0.000014 -10.001887 -91.990334 60.913773 -167.002350 16.999372 -0.001742 20.000179 -4.821655 2.793927 6.308224 -61.999828 19.999102 -29.999998 139.991013 0.000000 0.000000 66.999611 0.000001 -0.000001 -62.001255 -20.003736 29.999212 139.991013 0.000000 0.000000 66.999611 0.000001 -0.000001 
0.000000 11.998247 -8.004953 3.999748 0.000000 0.000000 72.766159 0.000001 -0.000001 15.996989 0.000000 0.000000 -27.000286 0.000000 0.000000 -24.705891 -0.067292 25.400898 5.996593 -0.003181 -10.001706 92.030014 -60.434929 -167.048691 -16.864733 0.012738 -8.281541 0.000000 0.000000 14.998176 -6.000379 0.000014 -10.001887 -91.990288 60.450329 -167.002579 16.999372 -0.001742 20.000179 -4.912482 2.895236 7.154113 -61.999828 19.999102 -29.999998 139.991013 0.000000 0.000000 66.999611 0.000001 -0.000001 -62.001255 -20.003736 29.999212 139.991013 0.000000 0.000000 66.999611 0.000001 -0.000001 
0.000000 11.998247 -8.004953 3.999748 0.000000 0.000000 72.998451 0.000001 -0.000001 15.996989 0.000000 0.000000 -27.000286 0.000000 0.000000 -25.000389 -0.000945 25.997068 5.996593 -0.003181 -10.001706 92.029938 -59.971481 -167.048965 -17.003525 -0.001547 -8.003323 0.000000 0.000000 14.998176 -6.000379 0.000014 -10.001887 -91.990211 59.987160 -167.002792 16.999372 -0.001742 20.000179 -5.001601 2.997631 7.997918 -61.999828 19.999102 -29.999998 139.991013 0.000000 0.000000 66.999611 0.000001 -0.000001 -62.001255 -20.003736 29.999212 139.991013 0.000000 0.000000 66.999611 0.000001 -0.000001 
0.000000 11.998247 -8.004953 3.999748 0.000000 0.000000 72.821243 0.000001 -0.000001 15.996989 0.000000 0.000000 -27.000286 0.000000 0.000000 -24.667061 -0.075801 25.322369 5.996593 -0.003181 -10.001706 92.030029 -60.495930 -167.048660 -16.846462 0.014568 -8.318156 0.000000 0.000000 14.998176 -6.000379 0.000014 -10.001887 -91.990288 60.511276 -167.002548 16.999372 -0.001742 20.000179 -4.900629 2.881844 7.042930 -61.999828 19.999102 -29.999998 139.991013 0.000000 0.000000 66.999611 0.000001 -0.000001 -62.001255 -20.003736 29.999212 139.991013 0.000000 0.000000 66.999611 0.000001 -0.000001 
0.000000 11.998247 -8.004953 3.999748 0.000000 0.000000 72.643982 0.000001 -0.000001 15.996989 0.000000 0.000000 -27.000286 0.000000 0.000000 -24.332346 -0.146835 24.646168 5.996593 -0.003181 -10.001706 92.030083 -61.020767 -167.048325 -16.689259 0.029825 -8.633138 0.000000 0.000000 14.998176 -6.000379 0.000014 -10.001887 -91.990334 61.035782 -167.002289 16.999372 -0.001742 20.000179 -4.797471 2.767451 6.085286 -61.999828 19.999102 -29.999998 139.991013 0.000000 0.000000 66.999611 0.000001 -0.000001 -62.001255 -20.003736 29.999212 139.991013 0.000000 0.000000 66.999611 0.000001 -0.000001 
0.000000 11.998247 -8.004953 3.999748 0.000000 0.000000 72.466652 0.000001 -0.000001 15.996989 0.000000 0.000000 -27.000286 0.000000 0.000000 -23.996302 -0.214011 23.968542 5.996593 -0.003181 -10.001706 92.030197 -61.546009 -167.048019 -16.531925 0.044221 -8.948265 0.000000 0.000000 14.998176 -6.000379 0.000014 -10.001887 -91.990410 61.560673 -167.002029 16.999372 -0.001742 20.000179 -4.692156 2.654516 5.125112 -61.999828 19.999102 -29.999998 139.991013 0.000000 0.000000 66.999611 0.000001 -0.000001 -62.001255 -20.003736 29.999212 139.991013 0.000000 0.000000 66.999611 0.000001 -0.000001 
0.000000 11.998247 -8.004953 3.999748 0.000000 0.000000 72.289276 0.000001 -0.000001 15.996989 0.000000 0.000000 -27.000286 0.000000 0.000000 -23.659008 -0.277294 23.289562 5.996593 -0.003181 -10.001706 92.030235 -62.071571 -167.047668 -16.374464 0.057756 -9.263524 0.000000 0.000000 14.998176 -6.000379 0.000014 -10.001887 -91.990425 62.085880 -167.001755 16.999372 -0.001742 20.000179 -4.584714 2.543096 4.162528 -61.999828 19.999102 -29.999998 139.991013 0.000000 0.000000 66.999611 0.000001 -0.000001 -62.001255 -20.003736 29.999212 139.991013 0.000000 0.000000 66.999611 0.000001 -0.000001 
0.000000 11.998247 -8.004953 3.999748 0.000000 0.000000 72.111824 0.000001 -0.000001 15.996989 0.000000 0.000000 -27.000286 0.000000 0.000000 -23.320534 -0.336652 22.609314 5.996593 -0.003181 -10.001706 92.030312 -62.597481 -167.047348 -16.216890 0.070428 -9.578912 0.000000 0.000000 14.998176 -6.000379 0.000014 -10.001887 -91.990494 62.611465 -167.001480 16.999372 -0.001742 20.000179 -4.475176 2.433252 3.197663 -61.999828 19.999102 -29.999998 139.991013 0.000000 0.000000 66.999611 0.000001 -0.000001 -62.001255 -20.003736 29.999212 139.991013 0.000000 0.000000 66.999611 0.000001 -0.000001 
0.000000 11.998247 -8.004953 3.999748 0.000000 0.000000 71.934303 0.000001 -0.000001 15.996989 0.000000 0.000000 -27.000286 0.000000 0.000000 -22.980953 -0.392051 21.927876 5.996593 -0.003181 -10.001706 92.030373 -63.123722 -167.046997 -16.059202 0.082235 -9.894415 0.000000 0.000000 14.998176 -6.000379 0.000014 -10.001887 -91.990524 63.137341 -167.001221 16.999372 -0.001742 20.000179 -4.363575 2.325042 2.230645 -61.999828 19.999102 -29.999998 139.991013 0.000000 0.000000 66.999611 0.000001 -0.000001 -62.001255 -20.003736 29.999212 139.991013 0.000000 0.000000 66.999611 0.000001 -0.000001 
0.000000 11.998247 -8.004953 3.999748 0.000000 0.000000 71.756744 0.000001 -0.000001 15.996989 0.000000 0.000000 -27.000286 0.000000 0.000000 -22.640347 -0.443464 21.245327 5.996593 -0.003181 -10.001706 92.030449 -63.650238 -167.046661 -15.901415 0.093176 -10.210028 0.000000 0.000000 14.998176 -6.000379 0.000014 -10.001887 -91.990585 63.663540 -167.000946 16.999372 -0.001742 20.000179 -4.249949 2.218524 1.261607 -61.999828 19.999102 -29.999998 139.991013 0.000000 0.000000 66.999611 0.000001 -0.000001 -62.001255 -20.003736 29.999212 139.991013 0.000000 0.000000 66.999611 0.000001 -0.000001 
0.000000 11.998247 -8.004953 3.999748 0.000000 0.000000 71.579109 0.000001 -0.000001 15.996989 0.000000 0.000000 -27.000286 0.000000 0.000000 -22.298779 -0.490865 20.561749 5.996593 -0.003181 -10.001706 92.030472 -64.177002 -167.046310 -15.743531 0.103250 -10.525739 0.000000 0.000000 14.998176 -6.000379 0.000014 -10.001887 -91.990601 64.189964 -167.000656 16.999372 -0.001742 20.000179 -4.134335 2.113756 0.290681 -61.999828 19.999102 -29.999998 139.991013 0.000000 0.000000 66.999611 0.000001 -0.000001 -62.001255 -20.003736 29.999212 139.991013 0.000000 0.000000 66.999611 0.000001 -0.000001 
